<?xml version="1.0" encoding="UTF-8"?>
<svg id="Layer_2" xmlns="http://www.w3.org/2000/svg" viewBox="0 0 104 102.55">
  <defs>
    <style>
      .cls-1 {
        fill: #231f20;
      }

      .cls-2 {
        stroke: #fff;
        stroke-miterlimit: 10;
        stroke-width: .25px;
      }

      .cls-2, .cls-3 {
        fill: #7560a9;
      }

      .cls-4 {
        fill: #fff;
      }
    </style>
  </defs>
  <g>
    <path class="cls-1" d="M31.95,51.87c1.92.01,3.69.03,5.34-.02,1.03-.04,2.03-.1,3.03-.17,7.58-.72,12.55-3.87,18.44-16.8l-.86-.58c-3.32-2.22-7.63-2.27-11-.13l-14.89,9.45c-2.83,1.8-4.57,4.89-4.66,8.23,1.61-.01,3.13,0,4.6.01Z"/>
    <path class="cls-3" d="M46.87,50.71c5.94-1.35,12.13-4.18,20.61-10.01l-8.22-5.5c-4.17,9.14-7.89,13.48-12.38,15.51Z"/>
    <path class="cls-1" d="M72.19,43.85l-4.2-2.8c-11.51,7.96-18.83,10.42-26.96,11.15-1.3.15-2.68.22-4.15.24-1.53.05-3.1.06-4.76.06-1,0-2.04,0-3.1-.01-.55,0-1.11,0-1.68,0v7.86c0,5.56,4.51,10.07,10.07,10.07h29.18c5.56,0,10.07-4.51,10.07-10.07v-8.12c0-3.36-1.68-6.51-4.48-8.38Z"/>
  </g>
  <g>
    <path class="cls-4" d="M36.14,53.79v4.81h-1.47v-4.81h1.47Z"/>
    <path class="cls-4" d="M41.05,54.29c.34.36.5.87.5,1.5v2.81h-1.46v-2.61c0-.32-.08-.57-.25-.75-.17-.18-.39-.27-.67-.27s-.51.09-.67.27c-.17.18-.25.43-.25.75v2.61h-1.47v-4.81h1.47v.64c.15-.21.35-.38.6-.5.25-.12.54-.19.85-.19.56,0,1.01.18,1.35.55Z"/>
    <path class="cls-4" d="M49.71,54.28c.35.36.53.86.53,1.51v2.81h-1.46v-2.61c0-.31-.08-.55-.24-.72-.16-.17-.39-.25-.68-.25s-.51.08-.68.25c-.16.17-.25.41-.25.72v2.61h-1.46v-2.61c0-.31-.08-.55-.25-.72-.16-.17-.39-.25-.68-.25s-.51.08-.68.25c-.16.17-.25.41-.25.72v2.61h-1.47v-4.81h1.47v.6c.15-.2.34-.36.59-.48.24-.12.51-.18.82-.18.36,0,.68.08.97.23.28.16.51.38.67.66.17-.26.39-.48.68-.65.29-.17.6-.25.94-.25.6,0,1.07.18,1.42.54Z"/>
    <path class="cls-4" d="M51.76,58.37c-.38-.2-.67-.49-.89-.86s-.32-.81-.32-1.31.11-.93.33-1.3c.22-.38.52-.66.9-.87.38-.2.8-.3,1.27-.3s.9.1,1.27.3c.38.2.68.49.9.87.22.38.33.81.33,1.3s-.11.93-.33,1.31c-.22.38-.52.66-.9.87s-.81.3-1.28.3-.89-.1-1.27-.3ZM53.75,57.08c.2-.21.3-.5.3-.89s-.1-.68-.29-.89c-.19-.21-.43-.31-.71-.31s-.52.1-.71.31c-.19.2-.28.5-.28.89s.09.68.28.89.42.31.7.31.52-.1.72-.31Z"/>
  </g>
  <g>
    <path class="cls-4" d="M36.14,59.66v4.81h-1.47v-4.81h1.47Z"/>
    <path class="cls-4" d="M41.05,60.15c.34.36.5.87.5,1.5v2.81h-1.46v-2.61c0-.32-.08-.57-.25-.75-.17-.18-.39-.27-.67-.27s-.51.09-.67.27c-.17.18-.25.43-.25.75v2.61h-1.47v-4.81h1.47v.64c.15-.21.35-.38.6-.5.25-.12.54-.19.85-.19.56,0,1.01.18,1.35.55Z"/>
    <path class="cls-4" d="M44.31,63.08l1.04-3.43h1.57l-1.71,4.81h-1.82l-1.71-4.81h1.58l1.04,3.43Z"/>
    <path class="cls-4" d="M51.61,62.41h-3.33c.02.3.12.53.29.68.17.16.38.24.62.24.37,0,.62-.15.77-.47h1.57c-.08.32-.23.6-.43.85-.21.25-.47.45-.79.59-.32.14-.67.22-1.06.22-.47,0-.89-.1-1.26-.3s-.65-.49-.86-.86c-.21-.37-.31-.81-.31-1.31s.1-.94.31-1.31c.2-.37.49-.66.86-.86s.79-.3,1.27-.3.88.1,1.24.29.64.47.85.84c.2.36.31.78.31,1.27,0,.14,0,.28-.03.43ZM50.13,61.59c0-.25-.09-.45-.26-.6-.17-.15-.39-.22-.65-.22s-.45.07-.62.22c-.17.14-.28.35-.31.61h1.84Z"/>
    <path class="cls-4" d="M54.1,59.83c.26-.15.54-.23.86-.23v1.56h-.4c-.37,0-.64.08-.83.24-.18.16-.28.44-.28.83v2.23h-1.47v-4.81h1.47v.8c.17-.26.39-.47.65-.62Z"/>
    <path class="cls-4" d="M56.07,64.31c-.33-.14-.59-.34-.77-.59-.19-.25-.3-.53-.32-.84h1.45c.02.17.1.3.23.4s.31.15.51.15c.18,0,.33-.04.43-.11.1-.07.15-.16.15-.28,0-.14-.07-.24-.22-.31-.14-.07-.38-.14-.7-.22-.34-.08-.63-.16-.86-.25-.23-.09-.43-.23-.59-.42-.17-.19-.25-.45-.25-.78,0-.28.08-.53.23-.75.15-.23.38-.41.67-.54.3-.13.65-.2,1.05-.2.6,0,1.08.15,1.43.45.35.3.55.69.6,1.19h-1.36c-.02-.17-.1-.3-.22-.4-.12-.1-.29-.15-.49-.15-.17,0-.3.03-.4.1-.09.07-.14.16-.14.27,0,.14.07.24.22.31.15.07.37.14.68.21.36.09.65.18.87.27s.42.23.59.43c.17.2.26.46.26.8,0,.28-.08.53-.24.75s-.38.39-.68.52-.64.19-1.03.19c-.42,0-.79-.07-1.12-.22Z"/>
    <path class="cls-4" d="M60.53,64.23c-.38-.2-.67-.49-.89-.86-.22-.37-.32-.81-.32-1.31s.11-.93.33-1.31c.22-.38.52-.66.9-.87.38-.2.8-.3,1.27-.3s.9.1,1.27.3c.38.2.68.49.9.87.22.38.33.81.33,1.31s-.11.93-.33,1.3c-.22.38-.52.66-.9.87s-.81.3-1.28.3-.89-.1-1.27-.3ZM62.52,62.95c.2-.21.3-.5.3-.89s-.1-.68-.29-.89-.43-.31-.71-.31-.52.1-.71.31c-.19.2-.28.5-.28.89s.09.68.28.89c.19.21.42.31.7.31s.52-.1.72-.31Z"/>
    <path class="cls-4" d="M66.79,59.83c.26-.15.54-.23.86-.23v1.56h-.4c-.37,0-.64.08-.83.24-.18.16-.28.44-.28.83v2.23h-1.47v-4.81h1.47v.8c.17-.26.39-.47.65-.62Z"/>
  </g>
  <path class="cls-2" d="M34.4,52.39v-.34c0-.14.07-.27.19-.35l.61-.39c.14-.09.31-.09.45,0l.58.39c.11.08.18.21.18.34v.33c0,.23-.18.41-.41.41h-1.19c-.23,0-.41-.18-.41-.41Z"/>
</svg>