<?xml version="1.0" encoding="UTF-8"?>
<svg id="Layer_2" xmlns="http://www.w3.org/2000/svg" viewBox="0 0 104 102.55">
  <defs>
    <style>
      .cls-1, .cls-2 {
        fill: #231f20;
      }

      .cls-2 {
        stroke: #fff;
        stroke-miterlimit: 10;
        stroke-width: .25px;
      }

      .cls-3 {
        fill: #fff;
      }

      .cls-4 {
        fill: #7560a9;
      }
    </style>
  </defs>
  <g>
    <path class="cls-4" d="M31.04,52.24c1.97.02,3.79.03,5.49-.02,1.06-.04,2.09-.1,3.11-.18,7.79-.74,12.89-3.97,18.94-17.25l-.89-.59c-3.41-2.28-7.83-2.33-11.29-.13l-15.3,9.71c-2.91,1.85-4.69,5.02-4.79,8.46,1.66-.01,3.21,0,4.73.02Z"/>
    <path class="cls-1" d="M46.36,51.05c6.1-1.39,12.46-4.29,21.16-10.28l-8.45-5.65c-4.28,9.39-8.11,13.84-12.72,15.93Z"/>
    <path class="cls-4" d="M72.37,44.01l-4.31-2.88c-11.82,8.17-19.34,10.7-27.69,11.46-1.34.15-2.75.22-4.26.25-1.57.05-3.19.06-4.89.06-1.03,0-2.09,0-3.19-.01-.57,0-1.14,0-1.73,0v8.07c0,5.71,4.63,10.35,10.35,10.35h29.97c5.71,0,10.35-4.63,10.35-10.35v-8.34c0-3.46-1.72-6.68-4.6-8.6Z"/>
  </g>
  <g>
    <path class="cls-3" d="M35.34,54.22v4.94h-1.51v-4.94h1.51Z"/>
    <path class="cls-3" d="M40.38,54.73c.34.37.52.89.52,1.54v2.88h-1.5v-2.68c0-.33-.09-.59-.26-.77-.17-.18-.4-.27-.69-.27s-.52.09-.69.27c-.17.18-.26.44-.26.77v2.68h-1.51v-4.94h1.51v.65c.15-.22.36-.39.62-.52.26-.13.55-.19.87-.19.58,0,1.04.19,1.38.56Z"/>
    <path class="cls-3" d="M49.27,54.73c.36.37.54.89.54,1.55v2.88h-1.5v-2.68c0-.32-.08-.56-.25-.74-.17-.17-.4-.26-.69-.26s-.53.09-.69.26c-.17.17-.25.42-.25.74v2.68h-1.5v-2.68c0-.32-.08-.56-.25-.74-.17-.17-.4-.26-.69-.26s-.53.09-.69.26c-.17.17-.25.42-.25.74v2.68h-1.51v-4.94h1.51v.62c.15-.21.35-.37.6-.49.25-.12.53-.18.84-.18.37,0,.7.08,1,.24.29.16.52.39.69.68.17-.27.4-.49.7-.66.29-.17.62-.26.96-.26.61,0,1.1.19,1.46.56Z"/>
    <path class="cls-3" d="M51.38,58.92c-.39-.21-.69-.5-.91-.88s-.33-.83-.33-1.34.11-.95.34-1.34c.22-.39.53-.68.92-.89.39-.21.82-.31,1.31-.31s.92.1,1.31.31c.39.21.7.5.92.89.22.39.34.83.34,1.34s-.11.95-.34,1.34c-.23.39-.54.68-.93.89s-.83.31-1.31.31-.92-.1-1.31-.31ZM53.42,57.6c.2-.21.3-.52.3-.91s-.1-.7-.3-.91c-.2-.21-.44-.32-.73-.32s-.54.1-.73.31c-.19.21-.29.51-.29.92s.1.7.29.91.43.32.72.32.53-.11.74-.32Z"/>
  </g>
  <g>
    <path class="cls-3" d="M35.34,60.24v4.94h-1.51v-4.94h1.51Z"/>
    <path class="cls-3" d="M40.38,60.75c.34.37.52.89.52,1.54v2.88h-1.5v-2.68c0-.33-.09-.59-.26-.77-.17-.18-.4-.27-.69-.27s-.52.09-.69.27c-.17.18-.26.44-.26.77v2.68h-1.51v-4.94h1.51v.65c.15-.22.36-.39.62-.52.26-.13.55-.19.87-.19.58,0,1.04.19,1.38.56Z"/>
    <path class="cls-3" d="M43.73,63.76l1.07-3.52h1.61l-1.75,4.94h-1.87l-1.75-4.94h1.62l1.07,3.52Z"/>
    <path class="cls-3" d="M51.23,63.07h-3.42c.02.31.12.54.3.7.17.16.39.24.64.24.38,0,.64-.16.79-.48h1.61c-.08.32-.23.62-.45.88-.22.26-.49.46-.81.61-.32.15-.69.22-1.09.22-.48,0-.91-.1-1.29-.31s-.67-.5-.88-.88c-.21-.38-.32-.83-.32-1.34s.1-.96.31-1.34c.21-.38.5-.68.88-.88s.81-.31,1.3-.31.9.1,1.27.3.66.49.87.86c.21.37.31.81.31,1.3,0,.14,0,.29-.03.44ZM49.71,62.23c0-.26-.09-.47-.27-.62-.18-.15-.4-.23-.66-.23s-.47.07-.64.22c-.17.15-.28.36-.32.63h1.89Z"/>
    <path class="cls-3" d="M53.79,60.43c.27-.16.56-.23.88-.23v1.6h-.42c-.38,0-.66.08-.85.24-.19.16-.28.45-.28.85v2.29h-1.51v-4.94h1.51v.82c.18-.27.4-.48.66-.64Z"/>
    <path class="cls-3" d="M55.81,65.03c-.34-.15-.6-.35-.8-.61-.2-.26-.3-.54-.33-.86h1.49c.02.17.1.31.24.42s.32.16.52.16c.19,0,.33-.04.44-.11.1-.07.15-.17.15-.29,0-.14-.07-.25-.22-.31-.15-.07-.39-.14-.72-.23-.35-.08-.65-.17-.88-.26-.24-.09-.44-.24-.61-.43-.17-.2-.26-.46-.26-.8,0-.28.08-.54.23-.77.16-.23.39-.42.69-.55.3-.14.67-.2,1.08-.2.62,0,1.11.15,1.46.46.36.31.56.71.61,1.22h-1.4c-.02-.17-.1-.31-.23-.41-.13-.1-.29-.15-.5-.15-.18,0-.31.03-.41.1-.09.07-.14.16-.14.28,0,.14.08.25.23.32.15.07.38.14.7.21.37.09.66.19.89.28s.43.24.61.44c.17.2.26.48.27.82,0,.29-.08.55-.24.77s-.39.41-.7.53-.66.2-1.06.2c-.43,0-.81-.07-1.15-.22Z"/>
    <path class="cls-3" d="M60.39,64.94c-.39-.21-.69-.5-.91-.88-.22-.38-.33-.83-.33-1.34s.11-.95.34-1.34c.22-.39.53-.68.92-.89.39-.21.82-.31,1.31-.31s.92.1,1.31.31c.39.21.7.5.92.89.22.39.34.83.34,1.34s-.11.95-.34,1.34c-.23.39-.54.68-.93.89s-.83.31-1.31.31-.92-.1-1.31-.31ZM62.43,63.62c.2-.21.3-.52.3-.91s-.1-.7-.3-.91-.44-.32-.73-.32-.54.11-.73.31c-.19.21-.29.51-.29.92s.1.7.29.91c.19.21.43.32.72.32s.53-.11.74-.32Z"/>
    <path class="cls-3" d="M66.82,60.43c.27-.16.56-.23.88-.23v1.6h-.42c-.38,0-.66.08-.85.24-.19.16-.28.45-.28.85v2.29h-1.51v-4.94h1.51v.82c.18-.27.4-.48.66-.64Z"/>
  </g>
  <path class="cls-2" d="M33.55,52.79v-.35c0-.14.07-.28.2-.36l.63-.4c.14-.09.32-.09.46,0l.6.4c.12.08.19.21.19.35v.34c0,.23-.19.42-.42.42h-1.23c-.23,0-.42-.19-.42-.42Z"/>
</svg>